<svg xmlns="http://www.w3.org/2000/svg" viewBox="0 0 699.61 574.99"><defs><style>.cls-1{fill:none;stroke:#b6b6bf;stroke-miterlimit:10;stroke-width:5px;}.cls-2{fill:#fff;}</style></defs><g id="Draw"><path class="cls-1" d="M374.54,465" transform="translate(-162.2 -224.5)"/><path class="cls-2" d="M836,612.28H732.47s6.26-12.53,0-23c0,0,162.86-64.73,119-135.72-2.06-3.34-4.13-6.6-6.2-9.83h0c-39.59,11-39.82-16.2-39.82-16.2v-40c-10.19-13.08-19.36-24-26.63-32.26a91.35,91.35,0,0,0-38.74-26.08l-32.68-11.31c-2-43.53-55.15-77.53-115.57-88.6-15.32-3.4-32-10.3-28.09,3.41,11.06,39.15,47.66,68.94,47.66,68.94s-159.07-42.49-255.75-36.41a12,12,0,0,0-10.16,17c8.57,18.44,29.21,49.29,76.12,69.63,19.57,10.21,26.38,12.77,50.21,20.43,16.8,5.4,37.75,11.77,56,14.51,0,0-62.64,79.34-20.88,148.24,0,0-35.5,10.44-50.11,0-12.07-8.62-36.94-18.66-45.24-21.89a56.43,56.43,0,0,0,.87-9.8,55.68,55.68,0,1,0-107.43,20.54c-7.12,6.89-38.2,39.14-38.2,78,0,0-23-12.53-37.59,10.44C217,631.57,178.2,702.43,166.1,724.61a31.58,31.58,0,0,0-3.79,17.82c1.23,14.51,9.06,36.09,47.54,18.46A32.58,32.58,0,0,0,223.59,749L246,714.59l16.7,25L251.1,759.42a26.18,26.18,0,0,0-2.58,20.63c3.54,11.94,12.84,26.56,37.19,15.55A62.11,62.11,0,0,0,309,777l8-10.25s16.7,8.35,39.67,0c0,0,37.58,37.58,156.59,23,0,0,106.49-20.87,175.39-73.07,0,0,69.8-7.4,93.34-17.72,21.5-9.43,27.76-28.22,27.76-28.22S884.3,651.21,855,620.33A26.09,26.09,0,0,0,836,612.28ZM695.76,472.67s-36.59-.15-51.47,0-18.51-6.41-18.51-6.41c-19.84-31-8-49.48,4.88-59.37a39.26,39.26,0,0,1,37-5.71c12,4.21,27.52,13.06,39.57,31.68C730.14,468.35,695.76,472.67,695.76,472.67Z" transform="translate(-162.2 -224.5)"/></g></svg>